<?xml version="1.0" standalone="no"?>
<!DOCTYPE svg PUBLIC "-//W3C//DTD SVG 20010904//EN"
 "http://www.w3.org/TR/2001/REC-SVG-20010904/DTD/svg10.dtd">
<svg version="1.0" xmlns="http://www.w3.org/2000/svg"
 width="1600.000000pt" height="420.000000pt" viewBox="0 0 1600.000000 420.000000"
 preserveAspectRatio="xMidYMid meet">

<g transform="translate(0.000000,420.000000) scale(0.100000,-0.100000)"
fill="#000000" stroke="none">
<path d="M14628 3860 c-7 -11 -23 -20 -35 -20 -16 0 -23 -6 -23 -20 0 -11 -4
-20 -9 -20 -16 0 -52 -67 -45 -84 3 -9 1 -16 -5 -16 -6 0 -10 3 -10 8 4 22 -3
34 -16 28 -12 -4 -15 3 -15 34 0 44 -5 48 -32 23 -18 -16 -24 -8 -18 22 4 24
-43 -34 -74 -90 -67 -119 -97 -294 -58 -333 34 -34 52 -66 52 -94 0 -34 106
-146 133 -140 12 2 17 -3 17 -20 0 -16 -3 -19 -9 -10 -6 10 -10 10 -20 -2 -11
-13 -8 -14 19 -11 27 4 30 2 25 -15 -4 -12 -2 -20 4 -20 6 0 10 3 9 8 -5 16
27 70 39 65 7 -3 13 0 13 6 0 6 -4 11 -10 11 -5 0 -10 5 -10 11 0 5 5 7 10 4
6 -4 10 6 10 22 0 27 0 27 19 8 30 -32 35 -62 11 -68 -29 -7 -27 -57 4 -86 14
-13 29 -20 35 -17 6 4 9 1 6 -6 -4 -9 6 -14 30 -15 36 -3 40 3 38 55 -1 7 6
12 16 10 10 -2 16 -13 16 -28 0 -14 4 -31 9 -39 8 -12 11 -11 21 3 7 9 19 15
26 14 7 -2 14 4 16 13 3 13 -2 15 -24 12 l-28 -4 23 20 23 20 -21 21 c-31 31
-24 35 11 6 30 -25 69 -35 69 -17 0 5 20 17 45 28 34 14 45 23 45 41 0 12 -6
22 -14 22 -16 0 -27 43 -15 62 5 7 9 23 9 35 0 18 -5 22 -22 20 -16 -1 -24 4
-26 18 -5 28 -60 71 -74 57 -7 -7 -3 -24 13 -56 25 -50 18 -74 -11 -38 -10 12
-23 22 -29 22 -5 0 -16 9 -24 20 -8 11 -16 17 -19 14 -3 -3 -9 -1 -13 5 -3 6
1 11 9 11 21 0 21 34 0 51 -12 10 -17 10 -23 0 -9 -14 -61 2 -61 18 0 5 -12
12 -27 14 -27 4 -27 4 -5 12 28 9 28 15 -4 40 -40 32 -38 64 4 100 20 17 33
25 29 18 -4 -6 -2 -15 4 -18 15 -10 59 15 59 33 0 11 -3 12 -14 3 -11 -9 -18
-8 -30 4 -9 9 -20 13 -26 10 -5 -3 -10 1 -10 9 0 22 12 20 40 -6 20 -18 23
-19 17 -4 -4 10 -7 20 -7 22 0 2 -7 4 -15 4 -8 0 -15 5 -15 10 0 6 4 10 9 10
6 0 13 -4 16 -10 15 -25 26 -8 20 31 -5 29 -4 40 4 35 6 -4 11 -17 11 -29 0
-27 16 -54 26 -44 4 4 2 17 -4 30 -13 27 -13 58 1 75 7 8 5 12 -6 12 -9 0 -19
9 -22 20 -8 25 -44 60 -62 60 -7 0 -18 -9 -25 -20z m87 -70 c3 -5 1 -10 -4
-10 -6 0 -11 5 -11 10 0 6 2 10 4 10 3 0 8 -4 11 -10z m-139 -46 c-4 -9 -9
-15 -11 -12 -3 3 -3 13 1 22 4 9 9 15 11 12 3 -3 3 -13 -1 -22z m62 -38 c-7
-8 -17 -12 -22 -9 -4 3 -2 9 5 14 22 13 31 11 17 -5z m-73 -5 c3 -6 -4 -15
-15 -21 -22 -12 -23 -10 -14 14 7 18 20 21 29 7z m45 -61 c0 -4 -6 -10 -14
-13 -10 -4 -12 0 -9 14 5 18 23 18 23 -1z m-164 -21 c0 -16 -15 -39 -25 -39
-4 0 -6 14 -3 30 4 30 26 37 28 9z m117 -186 c-5 -32 -5 -32 -29 -15 -31 22
-34 77 -4 67 16 -5 19 -3 14 12 -3 10 1 7 9 -7 8 -14 13 -39 10 -57z m117
-128 c0 -26 -14 -33 -25 -15 -9 14 1 40 15 40 5 0 10 -11 10 -25z m250 -21 c0
-2 -9 -4 -21 -4 -11 0 -18 4 -14 10 5 8 35 3 35 -6z m-120 -8 c0 -3 -4 -8 -10
-11 -5 -3 -10 -1 -10 4 0 6 5 11 10 11 6 0 10 -2 10 -4z m-57 -71 c-8 -40 -17
-49 -33 -30 -10 12 -10 15 0 15 10 0 10 3 0 15 -9 11 -9 15 -1 15 7 0 9 5 5
11 -3 6 0 15 7 20 19 11 29 -9 22 -46z m-109 -11 c3 -8 2 -12 -4 -9 -6 3 -10
10 -10 16 0 14 7 11 14 -7z m146 -14 c0 -5 -4 -10 -10 -10 -5 0 -10 5 -10 10
0 6 5 10 10 10 6 0 10 -4 10 -10z m-78 -34 c4 -22 3 -24 -13 -15 -19 10 -25
30 -13 42 11 10 21 -1 26 -27z m43 -37 c11 -17 -1 -21 -15 -4 -8 9 -8 15 -2
15 6 0 14 -5 17 -11z m-55 -69 c0 -5 -2 -10 -4 -10 -3 0 -8 5 -11 10 -3 6 -1
10 4 10 6 0 11 -4 11 -10z"/>
<path d="M14780 3822 c0 -12 19 -26 26 -19 2 2 -2 10 -11 17 -9 8 -15 8 -15 2z"/>
<path d="M14767 3786 c-3 -8 -2 -18 3 -21 13 -8 24 15 12 27 -6 6 -11 4 -15
-6z"/>
<path d="M14980 3758 c0 -9 7 -19 16 -22 15 -6 15 -4 3 11 -7 10 -15 20 -16
22 -2 2 -3 -3 -3 -11z"/>
<path d="M15040 3736 c0 -2 7 -7 16 -10 8 -3 12 -2 9 4 -6 10 -25 14 -25 6z"/>
<path d="M14790 3705 c0 -8 5 -15 10 -15 6 0 10 7 10 15 0 8 -4 15 -10 15 -5
0 -10 -7 -10 -15z"/>
<path d="M14820 3690 c-17 -31 -8 -42 13 -15 9 14 13 26 8 30 -6 3 -15 -4 -21
-15z"/>
<path d="M15139 3682 c-13 -15 -13 -22 -2 -50 14 -33 28 -41 36 -19 4 9 7 9
18 0 11 -11 10 -15 -6 -27 -18 -13 -18 -14 3 -25 27 -15 32 -14 32 4 0 18 17
20 23 3 7 -20 29 5 30 35 1 14 5 23 9 20 5 -2 16 1 25 6 16 9 14 10 -9 11 -37
0 -59 10 -51 24 4 6 0 6 -9 -2 -13 -10 -19 -10 -31 3 -9 8 -20 15 -26 15 -6 0
-11 5 -11 10 0 15 -14 12 -31 -8z m81 -57 c0 -8 -4 -15 -10 -15 -5 0 -10 7
-10 15 0 8 5 15 10 15 6 0 10 -7 10 -15z"/>
<path d="M14957 3644 c-10 -13 -22 -22 -28 -19 -5 4 -9 1 -9 -4 0 -6 13 -11
29 -11 16 0 35 -2 43 -5 7 -3 20 -1 28 5 12 7 11 13 -10 34 -29 32 -30 32 -53
0z"/>
<path d="M14816 3621 c-4 -5 0 -12 6 -14 10 -4 9 -8 -2 -16 -10 -7 -11 -11 -3
-11 16 0 11 -36 -6 -53 -9 -9 -14 -9 -20 1 -6 10 -11 9 -21 -4 -22 -26 -21
-46 6 -86 25 -39 44 -49 44 -23 0 9 6 12 15 9 10 -4 18 3 25 21 6 15 19 29 30
32 27 7 25 33 -5 66 -14 15 -21 27 -15 27 19 0 42 30 36 46 -9 22 -40 13 -44
-14 -2 -12 -8 -22 -13 -22 -6 0 -8 4 -4 9 3 5 0 13 -6 17 -8 4 -7 9 2 15 11 7
10 9 -3 9 -9 0 -19 -4 -22 -9z"/>
<path d="M15345 3600 c-3 -5 -1 -10 4 -10 6 0 11 5 11 10 0 6 -2 10 -4 10 -3
0 -8 -4 -11 -10z"/>
<path d="M15436 3575 c-3 -10 0 -12 12 -8 15 6 15 5 3 -10 -7 -9 -9 -17 -3
-17 14 0 23 -43 11 -51 -6 -3 -1 -9 10 -12 18 -4 21 -1 21 28 0 18 3 42 7 52
3 10 2 15 -2 10 -5 -4 -18 0 -31 8 -19 12 -23 12 -28 0z"/>
<path d="M14930 3491 c0 -22 16 -36 24 -22 8 12 -3 41 -15 41 -5 0 -9 -9 -9
-19z"/>
<path d="M14722 3488 c-12 -12 1 -38 20 -38 6 0 5 6 -2 15 -6 8 -9 19 -5 25 8
13 2 13 -13 -2z"/>
<path d="M14680 3440 c0 -5 5 -10 11 -10 5 0 7 5 4 10 -3 6 -8 10 -11 10 -2 0
-4 -4 -4 -10z"/>
<path d="M15351 3401 c-1 -8 6 -23 16 -33 10 -12 12 -18 4 -18 -7 0 -10 -4 -6
-10 8 -13 35 -1 35 16 0 8 -7 14 -15 14 -9 0 -20 10 -25 23 -5 12 -9 16 -9 8z"/>
<path d="M15490 3355 c0 -8 5 -15 10 -15 6 0 10 7 10 15 0 8 -4 15 -10 15 -5
0 -10 -7 -10 -15z"/>
<path d="M15591 3294 c0 -11 3 -14 6 -6 3 7 2 16 -1 19 -3 4 -6 -2 -5 -13z"/>
<path d="M15575 3244 c-13 -56 -37 -113 -51 -118 -8 -3 -14 -15 -14 -26 0 -12
-16 -38 -35 -58 -20 -20 -43 -52 -53 -71 -14 -29 -76 -84 -158 -139 -10 -7 1
-2 26 10 65 34 191 162 233 238 36 65 74 177 63 187 -3 3 -8 -8 -11 -23z"/>
<path d="M14290 3240 c0 -5 7 -10 15 -10 8 0 15 5 15 10 0 6 -7 10 -15 10 -8
0 -15 -4 -15 -10z"/>
<path d="M14342 3212 c2 -31 6 -38 16 -30 17 14 15 43 -3 58 -14 11 -15 8 -13
-28z"/>
<path d="M11485 3169 c-585 -79 -1047 -141 -1110 -149 -351 -46 -767 -101
-796 -105 l-35 -6 32 -202 c76 -475 115 -735 117 -775 2 -43 1 -44 -43 -61
-25 -10 -99 -43 -165 -73 -199 -93 -231 -101 -365 -95 -94 4 -151 14 -312 56
-109 28 -219 62 -246 75 -108 55 -325 84 -491 67 -53 -6 -157 -15 -231 -21
-157 -13 -255 -28 -437 -70 -73 -16 -175 -33 -228 -36 -92 -7 -95 -6 -95 14 0
19 114 891 125 958 l5 31 -62 7 c-35 4 -108 13 -163 21 -107 15 -135 19 -485
65 -124 16 -259 34 -300 40 -74 10 -414 55 -640 85 -63 9 -144 20 -180 25 -36
5 -83 11 -106 14 l-41 6 -11 -93 c-13 -111 -119 -909 -127 -953 -5 -29 -9 -32
-63 -42 -31 -6 -115 -16 -187 -22 -180 -15 -244 -26 -440 -72 -217 -52 -344
-56 -556 -15 -75 15 -196 31 -270 37 -244 19 -320 30 -570 80 -158 33 -242 37
-381 19 -63 -8 -96 -9 -111 -1 -12 6 -53 18 -92 28 -58 15 -65 19 -45 25 14 4
48 7 77 8 42 1 51 4 47 16 -4 9 1 18 12 22 10 4 30 20 43 36 14 16 31 36 40
44 13 14 13 17 -4 29 -10 8 -33 14 -49 14 -17 1 -49 9 -71 20 -22 11 -49 20
-60 20 -11 1 -36 7 -54 14 -25 9 -31 15 -22 21 11 6 9 12 -9 25 -22 17 -23 19
-9 66 17 61 17 64 6 91 -12 28 -36 33 -113 26 -53 -5 -68 -2 -99 16 -20 11
-47 21 -61 21 -14 0 -34 5 -45 11 -15 7 -24 7 -35 -1 -11 -10 -15 -9 -19 2 -4
11 -29 15 -104 17 l-99 2 -10 -29 c-6 -19 -19 -32 -36 -36 -15 -4 -25 -10 -22
-15 3 -4 -5 -16 -16 -26 -21 -18 -25 -17 -132 9 -128 31 -148 32 -140 11 5
-12 -3 -15 -39 -15 -65 0 -109 -11 -103 -25 14 -37 -54 -56 -106 -29 -18 9
-33 12 -37 6 -3 -5 -19 -15 -36 -23 -16 -8 -31 -22 -33 -32 -4 -21 16 -22 37
-2 13 11 21 12 40 2 27 -14 49 -43 39 -52 -8 -8 -138 5 -136 14 4 35 -25 43
-42 11 -9 -18 -23 -20 -148 -22 l-137 -3 114 -45 c88 -34 109 -46 91 -50 -22
-5 -20 -7 18 -33 23 -15 46 -27 52 -27 5 0 10 -4 10 -10 0 -5 -9 -10 -19 -10
-11 0 -21 -4 -23 -9 -1 -5 -17 -12 -34 -15 -26 -6 -32 -3 -42 19 -16 36 -40
31 -58 -11 -20 -47 -8 -61 37 -45 26 9 36 9 45 -1 25 -26 21 -68 -6 -68 -11 0
-20 -4 -20 -10 0 -5 -17 -10 -37 -10 -37 -1 -37 -1 -14 -14 33 -18 7 -26 -50
-16 -86 16 -199 23 -199 12 0 -6 -9 -8 -19 -5 -10 3 -40 -4 -65 -16 l-46 -20
13 -33 c7 -18 20 -33 28 -34 15 -1 19 -2 110 -36 50 -19 56 -24 55 -50 -1 -17
-6 -26 -13 -24 -19 8 -23 -6 -5 -20 15 -12 14 -14 -17 -20 -30 -6 -32 -8 -17
-20 16 -11 16 -13 -1 -23 -17 -9 -17 -11 2 -25 11 -8 50 -28 87 -43 37 -15 70
-33 72 -40 3 -6 -14 -32 -38 -56 l-43 -43 34 -33 c28 -27 33 -38 31 -72 -1
-29 3 -43 18 -54 50 -39 89 -58 115 -57 16 0 27 -4 24 -9 -4 -5 -13 -9 -21 -9
-8 0 -14 -7 -14 -15 0 -19 34 -19 50 0 16 19 57 19 94 0 17 -9 49 -20 72 -25
24 -6 54 -20 66 -33 25 -25 271 -127 305 -127 10 0 24 -5 30 -11 6 -6 80 -15
170 -20 154 -10 158 -9 175 11 18 23 38 19 38 -7 0 -13 21 -15 157 -12 87 1
176 -1 198 -5 40 -8 42 -6 100 51 33 32 60 61 60 65 0 3 3 10 7 14 15 15 7 23
-32 34 -22 6 -38 15 -35 20 8 14 -14 23 -28 11 -9 -7 -26 -5 -57 5 -66 23 -63
26 21 18 l75 -6 52 52 c29 29 49 56 46 61 -3 5 -1 9 4 9 5 0 12 9 15 21 6 21
6 21 40 -5 29 -22 36 -24 46 -12 9 10 7 19 -7 36 -19 23 -72 37 -72 19 0 -6
-8 -5 -20 1 -20 11 -20 11 2 40 12 17 39 38 60 48 20 9 38 21 38 26 0 4 18 25
39 46 21 21 42 48 46 59 5 18 1 22 -24 27 -33 7 -39 22 -19 42 10 10 8 14 -10
18 -29 8 -28 13 14 56 33 35 34 37 15 47 -11 6 -30 11 -43 11 -13 0 -30 5 -38
10 -11 7 -5 10 23 10 22 0 36 4 32 9 -14 23 45 35 190 39 144 4 159 2 352 -37
196 -40 287 -52 533 -71 63 -5 183 -21 265 -35 83 -14 180 -26 216 -26 71 -1
200 20 314 50 127 34 228 51 405 66 96 9 190 20 208 25 24 6 32 5 32 -4 0 -15
-87 -675 -95 -722 l-5 -31 92 -11 c96 -11 696 -91 923 -123 39 -5 171 -23 295
-39 215 -29 311 -42 555 -74 60 -8 110 -14 111 -13 0 1 11 79 23 172 12 94 26
199 31 235 5 36 19 142 31 235 12 94 25 173 28 177 3 3 58 12 121 18 63 6 181
27 262 45 227 52 500 81 758 79 159 -1 223 -11 308 -50 134 -61 510 -147 652
-148 113 -1 189 23 415 129 76 35 142 61 146 57 3 -4 12 -43 18 -87 45 -303
121 -778 126 -783 3 -3 246 27 575 73 96 14 261 36 365 49 283 37 785 104 910
121 61 9 126 18 145 20 171 21 201 28 196 44 -3 9 -21 122 -41 251 -20 129
-45 289 -56 355 -10 66 -19 123 -19 126 0 3 50 9 110 13 125 7 222 26 307 57
106 40 97 41 448 -66 151 -46 182 -54 276 -64 96 -11 108 -9 328 35 157 32
193 47 236 97 21 24 39 37 43 31 8 -8 36 -71 95 -209 36 -86 70 -110 117 -85
25 13 46 87 64 225 16 121 80 411 127 574 35 122 34 150 -4 171 -25 14 -30 13
-62 -5 -52 -30 -212 -130 -345 -217 -141 -91 -164 -103 -212 -112 -39 -7 -78
-45 -78 -76 0 -31 38 -67 102 -98 35 -16 71 -36 81 -43 16 -13 16 -16 -5 -46
-13 -17 -31 -36 -41 -43 -30 -18 -312 -70 -380 -70 -77 1 -195 21 -273 48 -32
11 -130 41 -216 67 -184 55 -221 56 -362 5 -76 -27 -108 -33 -230 -39 -85 -5
-143 -4 -147 2 -4 5 -9 30 -12 56 -3 25 -27 177 -52 336 -25 160 -59 378 -75
485 -40 259 -37 250 -63 249 -12 -1 -116 -14 -232 -30z m179 -116 c3 -21 24
-150 46 -288 22 -137 73 -464 115 -725 41 -261 86 -542 100 -625 13 -82 23
-150 22 -152 -2 -1 -108 -16 -237 -33 -129 -16 -287 -37 -350 -45 -112 -15
-242 -32 -575 -75 -88 -11 -263 -34 -390 -51 -177 -23 -452 -58 -461 -59 -1 0
-7 35 -13 78 -7 42 -30 187 -52 322 -21 135 -77 486 -124 780 -97 613 -95 598
-101 626 -6 25 -15 23 381 74 132 17 310 39 395 51 157 20 430 56 485 63 17 3
104 14 195 26 91 12 242 32 335 45 235 32 222 33 229 -12z m-6149 -143 c345
-46 560 -76 700 -95 55 -8 150 -21 210 -29 302 -41 428 -58 516 -72 53 -8 110
-14 127 -14 17 0 33 -3 35 -7 2 -5 -4 -73 -14 -153 -38 -289 -59 -453 -80
-607 -56 -433 -81 -625 -105 -808 -14 -110 -28 -203 -32 -206 -4 -4 -45 -1
-92 6 -47 7 -141 20 -210 29 -69 10 -170 23 -225 31 -55 7 -154 21 -220 30
-66 9 -165 22 -220 30 -104 15 -317 44 -515 71 -190 26 -314 45 -319 49 -2 3
1 44 8 92 32 254 118 914 146 1128 8 61 26 200 40 310 34 265 29 247 68 241
18 -3 100 -15 182 -26z m-3425 -459 c-1 -17 -63 -72 -76 -67 -12 5 -9 14 17
45 18 21 39 37 46 34 7 -3 13 -8 13 -12z m191 -50 c12 -31 9 -33 -24 -16 -14
7 -35 11 -47 8 -25 -7 -27 12 -2 26 9 6 13 11 8 11 -5 0 -3 7 4 15 11 14 15
14 33 -2 10 -10 23 -29 28 -42z m-58 -56 c36 -15 57 -35 37 -35 -6 0 -8 -4 -5
-10 3 -5 1 -10 -4 -10 -6 0 -11 6 -11 14 0 8 -19 23 -42 35 -49 24 -29 29 25
6z m106 -174 c9 -6 10 -11 2 -15 -13 -8 -31 1 -31 15 0 11 11 11 29 0z m76
-51 c3 -5 1 -10 -4 -10 -6 0 -11 5 -11 10 0 6 2 10 4 10 3 0 8 -4 11 -10z
m-324 -993 c-16 -16 -25 -1 -10 16 8 8 16 11 18 5 2 -5 -2 -15 -8 -21z m-266
-37 c3 -5 1 -10 -4 -10 -6 0 -11 5 -11 10 0 6 2 10 4 10 3 0 8 -4 11 -10z
m-205 -80 c0 -5 -8 -10 -17 -10 -15 0 -16 2 -3 10 19 12 20 12 20 0z"/>
<path d="M11220 2850 l0 -40 -40 0 c-39 0 -40 -1 -41 -37 0 -35 -1 -36 -11
-15 -7 13 -17 21 -26 17 -7 -3 -23 -5 -34 -5 -17 0 -19 -4 -13 -39 6 -38 6
-38 -34 -49 l-41 -10 0 33 c0 31 -3 34 -39 40 -38 6 -39 8 -34 39 5 32 3 34
-32 40 -45 9 -68 -13 -59 -58 4 -18 1 -31 -7 -37 -22 -14 -59 -10 -59 5 0 8
-14 15 -36 18 -29 3 -38 0 -44 -16 -9 -21 -9 -21 -9 -1 -1 29 10 42 42 51 27
6 28 9 22 43 -4 20 -8 37 -10 39 -2 2 -19 0 -39 -3 -22 -5 -36 -13 -36 -22 0
-10 -7 -14 -20 -10 -17 4 -20 0 -20 -28 0 -34 -13 -45 -55 -45 -25 0 -35 -29
-35 -106 0 -44 0 -44 -35 -44 -31 0 -35 3 -35 28 0 43 -13 55 -54 50 -31 -3
-36 -1 -36 17 0 18 -5 20 -35 17 -19 -2 -37 -7 -39 -11 -2 -3 2 -38 8 -78 l13
-71 -36 -5 c-39 -4 -51 5 -51 41 0 21 -4 23 -37 20 -37 -3 -38 -4 -35 -37 3
-38 -9 -51 -50 -51 -22 0 -28 5 -28 23 0 37 -13 48 -49 41 l-32 -7 7 -51 c14
-95 13 -101 -24 -104 -33 -3 -33 -4 -30 -45 3 -41 2 -42 -32 -47 -20 -3 -35
-11 -34 -17 1 -7 2 -25 3 -39 1 -25 3 -26 40 -21 34 4 40 2 45 -17 11 -41 7
-56 -16 -56 -37 0 -50 -14 -46 -51 3 -32 1 -34 -32 -39 -33 -5 -35 -7 -32 -40
2 -19 6 -37 8 -39 2 -2 36 1 75 8 40 6 73 10 74 9 2 -2 6 -19 10 -39 7 -36 6
-37 -29 -43 -26 -5 -36 -12 -36 -25 0 -22 19 -123 23 -128 2 -2 18 0 36 3 31
6 33 9 29 45 -3 36 -2 37 31 43 40 6 51 -4 51 -46 0 -24 -4 -28 -29 -28 -17 0
-33 -5 -36 -10 -4 -6 -1 -43 5 -81 11 -65 14 -70 34 -65 11 3 28 6 38 6 13 0
15 7 11 39 -5 37 -3 41 21 47 43 11 53 0 62 -68 5 -35 8 -67 9 -73 0 -5 -16
-12 -35 -15 -33 -5 -35 -7 -32 -40 2 -19 5 -36 7 -38 2 -2 19 0 39 3 35 7 36
8 30 46 -6 34 -4 39 12 39 11 0 28 3 40 6 18 5 21 -1 31 -66 6 -40 13 -73 15
-76 2 -2 21 -1 41 3 31 5 36 9 32 27 -7 32 -95 563 -95 575 0 6 7 11 15 11 11
0 15 -12 15 -50 0 -48 1 -50 29 -50 35 0 41 -13 41 -96 0 -36 4 -64 10 -64 6
0 10 -7 10 -16 0 -11 5 -14 16 -10 9 3 27 6 40 6 23 0 24 3 18 39 -5 34 -4 39
17 44 47 13 49 11 49 -68 l0 -75 -45 0 c-45 0 -45 0 -45 -35 0 -28 4 -36 24
-41 45 -11 61 -2 64 39 3 35 5 37 39 37 l35 0 -3 -112 -4 -113 38 3 37 3 0
-81 c0 -79 0 -80 -25 -80 -18 0 -25 5 -25 19 0 36 -12 51 -39 51 -39 0 -48
-11 -43 -53 4 -37 5 -37 46 -35 40 3 41 2 44 -29 2 -20 9 -33 17 -33 9 0 15
-15 17 -42 3 -40 5 -43 36 -46 24 -2 32 -8 32 -22 0 -25 8 -29 48 -23 23 4 32
11 32 24 0 15 -7 19 -36 19 l-36 0 8 195 7 195 -38 0 -38 0 7 188 c3 103 9
242 13 310 l6 122 36 0 37 0 -4 -155 -4 -155 36 0 c35 0 36 1 36 35 0 34 1 35
40 35 37 0 40 2 40 28 0 15 3 51 6 80 l7 52 -42 0 -41 0 0 40 c0 39 -1 40 -35
40 -33 0 -35 2 -35 35 l0 35 75 0 75 0 0 -40 0 -40 81 0 80 0 -3 38 c-3 35 -5
37 -40 40 -36 3 -38 5 -38 38 l0 34 81 0 81 0 -7 -40 -7 -40 41 0 41 0 0 -40
c0 -40 0 -40 -38 -40 l-39 0 -6 -112 c-4 -62 -7 -132 -7 -155 l0 -43 40 0 40
0 0 41 c0 41 0 41 31 35 17 -3 34 -6 38 -6 3 0 3 -71 -1 -157 -3 -87 -6 -173
-7 -190 -1 -32 -3 -33 -41 -33 l-40 0 0 -40 0 -40 40 0 40 0 0 41 0 42 40 -7
40 -6 0 40 0 40 40 0 40 0 0 -40 c0 -39 1 -40 34 -40 31 0 34 3 38 34 4 34 2
35 -34 41 l-38 7 0 61 c0 34 3 86 6 115 l7 52 73 0 74 0 0 35 c0 33 -2 35 -35
35 l-35 0 0 80 0 80 40 0 40 0 0 40 c0 39 -1 40 -35 40 -34 0 -35 1 -35 40 l0
40 -40 0 c-36 0 -40 3 -40 24 0 45 9 55 46 49 31 -5 34 -4 34 20 0 45 10 57
46 57 27 0 34 4 34 19 0 11 3 26 6 35 5 12 0 16 -19 16 -52 0 -57 7 -57 86 l0
74 -35 0 c-33 0 -35 -2 -35 -35 0 -34 -1 -35 -41 -35 l-42 0 5 114 5 114 -38
4 -39 4 0 -39 0 -38 -77 3 -78 3 0 35 c0 33 2 35 38 38 31 3 37 7 37 27 0 13
3 30 6 39 5 13 -2 16 -35 16 l-41 0 0 -40z m-807 -680 c-6 -21 -37 -27 -49 -9
-8 13 13 29 38 29 11 0 15 -6 11 -20z m927 -20 c0 -39 -1 -40 -35 -40 -34 0
-35 1 -35 40 0 39 1 40 35 40 34 0 35 -1 35 -40z m-850 -95 c0 -8 -7 -15 -15
-15 -8 0 -15 7 -15 15 0 8 7 15 15 15 8 0 15 -7 15 -15z"/>
<path d="M11600 2680 c0 -39 1 -40 35 -40 34 0 35 1 35 40 0 39 -1 40 -35 40
-34 0 -35 -1 -35 -40z"/>
<path d="M10072 2683 c-32 -4 -32 -5 -26 -41 4 -20 7 -38 8 -39 1 -1 19 0 40
4 32 5 37 9 32 27 -3 12 -6 29 -6 39 0 9 -3 16 -7 15 -5 0 -23 -3 -41 -5z"/>
<path d="M9863 2493 c-16 -3 -23 -11 -23 -28 0 -43 8 -51 45 -47 29 3 35 8 35
27 0 13 -3 30 -6 39 -6 16 -10 17 -51 9z"/>
<path d="M11020 1770 l0 -40 40 0 40 0 0 40 0 40 -40 0 -40 0 0 -40z"/>
<path d="M10940 1621 l0 -41 63 0 c34 0 86 -3 115 -6 l52 -7 0 42 0 41 -54 0
c-29 0 -81 3 -115 6 l-61 7 0 -42z"/>
<path d="M10857 1503 c-4 -3 -7 -21 -7 -40 0 -32 1 -33 40 -33 l40 0 0 -40 c0
-39 1 -40 35 -40 l35 0 0 -80 0 -80 40 0 40 0 0 78 0 78 40 -4 40 -4 0 41 0
41 40 0 c39 0 40 1 40 34 0 26 -5 35 -22 40 -50 13 -58 8 -58 -34 0 -46 4 -45
-147 -33 l-83 6 0 38 c0 37 -1 39 -33 39 -19 0 -37 -3 -40 -7z"/>
<path d="M10405 1478 c-5 -12 51 -367 58 -374 2 -2 20 -1 40 3 28 4 36 10 33
22 -3 9 -17 94 -33 189 l-27 172 -33 0 c-19 0 -36 -6 -38 -12z"/>
<path d="M6020 2549 c-32 -13 -68 -47 -86 -81 -47 -91 36 -148 105 -73 36 40
60 43 137 17 60 -21 150 -77 158 -98 8 -21 -25 -94 -55 -121 -25 -22 -70 -36
-149 -48 -48 -6 -59 -13 -102 -61 -38 -41 -70 -171 -66 -267 3 -66 5 -72 31
-87 24 -13 30 -13 55 0 23 13 28 25 35 75 5 33 15 93 23 132 13 61 19 74 37
77 133 25 177 39 214 71 44 37 98 130 108 186 4 20 2 54 -4 75 -33 121 -317
252 -441 203z"/>
<path d="M5468 2081 c-61 -49 -85 -123 -50 -154 29 -27 67 -21 100 14 26 28
33 30 57 22 39 -13 52 -35 40 -69 -8 -21 -22 -31 -65 -46 -70 -23 -94 -50 -86
-98 4 -19 11 -62 17 -95 12 -69 31 -95 69 -95 45 0 64 31 62 104 l-2 64 48 23
c58 29 85 78 90 164 2 47 -1 67 -17 92 -48 76 -204 120 -263 74z"/>
<path d="M6550 1964 c-50 -21 -66 -76 -31 -108 11 -10 38 -20 61 -23 58 -8 51
-34 -14 -50 -59 -15 -83 -35 -96 -82 -23 -82 -3 -131 52 -131 28 0 52 22 67
63 6 16 18 27 29 27 27 0 97 49 116 80 29 49 15 147 -27 196 -18 21 -33 26
-82 30 -33 2 -67 1 -75 -2z"/>
<path d="M5931 1551 c-41 -22 -60 -54 -61 -104 -1 -99 150 -147 200 -64 29 47
27 117 -5 151 -13 14 -32 26 -42 26 -10 0 -27 2 -38 5 -11 3 -35 -4 -54 -14z"/>
<path d="M5567 1492 c-22 -24 -21 -65 1 -85 40 -36 102 -9 102 45 0 51 -69 78
-103 40z"/>
<path d="M6407 1472 c-22 -24 -21 -65 1 -85 40 -36 102 -9 102 45 0 51 -69 78
-103 40z"/>
<path d="M6545 1207 c-37 -21 -40 -26 -40 -67 0 -42 2 -46 44 -69 l43 -24 78
38 c57 28 83 35 101 30 38 -12 49 -25 49 -60 0 -26 -6 -35 -33 -50 -31 -16
-35 -16 -65 -1 -21 11 -32 24 -32 37 0 18 -2 19 -15 9 -25 -20 -17 -38 25 -60
49 -25 61 -25 111 0 39 20 40 22 37 68 -3 44 -6 48 -47 71 l-44 24 -74 -36
c-81 -41 -90 -42 -128 -25 -20 9 -25 18 -25 48 0 31 5 38 33 52 29 14 35 14
65 0 18 -9 32 -23 32 -34 0 -11 5 -15 15 -12 27 11 16 40 -24 62 -48 27 -56
27 -106 -1z"/>
<path d="M14404 3131 c4 -5 1 -22 -4 -37 -9 -24 -9 -25 5 -14 17 14 21 60 4
60 -5 0 -8 -4 -5 -9z"/>
<path d="M14330 3121 c0 -6 4 -13 10 -16 6 -3 7 1 4 9 -7 18 -14 21 -14 7z"/>
<path d="M14895 3110 c4 -6 11 -8 16 -5 14 9 11 15 -7 15 -8 0 -12 -5 -9 -10z"/>
<path d="M14656 2986 c6 -17 42 -32 52 -22 8 8 -8 22 -35 31 -18 5 -22 3 -17
-9z"/>
<path d="M14475 2960 c-4 -6 -1 -9 7 -8 8 2 13 -6 12 -19 0 -13 3 -23 8 -23 9
0 11 22 2 44 -7 18 -20 21 -29 6z"/>
<path d="M14565 2960 c-3 -5 -1 -10 4 -10 6 0 11 5 11 10 0 6 -2 10 -4 10 -3
0 -8 -4 -11 -10z"/>
<path d="M14660 2950 c0 -7 -3 -11 -6 -7 -3 3 -12 0 -19 -6 -10 -9 -10 -16 2
-34 18 -28 43 -37 43 -17 0 9 -9 18 -20 21 -25 7 -25 12 -3 29 10 7 15 16 10
20 -4 4 -7 1 -7 -6z"/>
<path d="M14540 2931 c0 -9 24 -21 42 -21 6 0 6 6 -2 15 -14 16 -40 20 -40 6z"/>
<path d="M2135 2900 c-10 -11 -13 -20 -8 -20 13 0 38 29 31 35 -3 3 -13 -4
-23 -15z"/>
<path d="M14725 2903 c2 -10 4 -26 4 -35 1 -15 5 -15 33 -6 30 11 31 12 10 19
-13 5 -25 15 -28 24 -8 21 -23 19 -19 -2z"/>
<path d="M14535 2901 c6 -11 4 -13 -8 -8 -33 13 -16 -4 44 -43 58 -37 167 -85
176 -77 2 2 -20 13 -49 24 -68 26 -153 76 -153 90 0 6 -4 15 -9 20 -6 5 -6 2
-1 -6z"/>
<path d="M14695 2880 c3 -5 8 -10 11 -10 2 0 4 5 4 10 0 6 -5 10 -11 10 -5 0
-7 -4 -4 -10z"/>
<path d="M14620 2860 c0 -5 7 -10 15 -10 9 0 28 -9 43 -19 15 -11 38 -22 52
-26 l25 -7 -23 17 c-12 9 -20 21 -17 26 3 5 0 6 -8 4 -7 -3 -30 1 -50 10 -22
9 -37 11 -37 5z"/>
<path d="M14775 2850 c-7 -11 35 -31 49 -22 5 3 1 11 -9 19 -22 16 -32 16 -40
3z"/>
<path d="M1175 2839 c-4 -6 -5 -13 -2 -16 7 -7 27 6 27 18 0 12 -17 12 -25 -2z"/>
<path d="M1630 2835 c-17 -20 -6 -31 21 -19 18 8 19 11 6 22 -11 10 -17 9 -27
-3z"/>
<path d="M1795 2831 c-20 -4 -26 -9 -17 -14 15 -10 72 1 72 14 0 10 -10 10
-55 0z"/>
<path d="M1346 2805 c-3 -9 -10 -14 -15 -11 -10 6 -25 -24 -16 -32 12 -12 60
14 60 32 0 25 -21 32 -29 11z"/>
<path d="M1500 2805 c-6 -8 -9 -19 -5 -25 8 -13 42 -4 74 21 l24 19 -40 0
c-23 0 -46 -6 -53 -15z"/>
<path d="M2335 2790 c-3 -5 1 -10 9 -10 9 0 16 5 16 10 0 6 -4 10 -9 10 -6 0
-13 -4 -16 -10z"/>
<path d="M1766 2764 c-4 -10 -1 -14 6 -12 15 5 23 28 10 28 -5 0 -13 -7 -16
-16z"/>
<path d="M898 2733 c6 -2 18 -2 25 0 6 3 1 5 -13 5 -14 0 -19 -2 -12 -5z"/>
<path d="M2526 2721 c-10 -15 12 -51 29 -51 21 0 19 24 -4 44 -12 11 -21 14
-25 7z"/>
<path d="M1263 2696 c-13 -16 -23 -31 -23 -35 0 -9 51 -31 72 -31 23 0 23 13
-1 34 -11 10 -21 28 -23 39 -3 21 -4 20 -25 -7z"/>
<path d="M2100 2690 c28 -22 44 -21 48 3 3 14 -4 17 -35 17 l-38 0 25 -20z"/>
<path d="M1032 2665 c12 -27 28 -33 28 -10 0 8 -9 19 -20 25 -18 10 -19 9 -8
-15z"/>
<path d="M1154 2659 c-10 -17 13 -36 27 -22 12 12 4 33 -11 33 -5 0 -12 -5
-16 -11z"/>
<path d="M2387 2653 c-13 -12 -7 -23 13 -23 11 0 30 -11 42 -25 22 -26 62 -33
73 -14 9 14 -35 61 -52 55 -7 -3 -15 -1 -18 4 -7 11 -48 13 -58 3z"/>
<path d="M1385 2629 c-9 -27 35 -75 59 -66 22 9 20 29 -5 61 -25 31 -45 33
-54 5z"/>
<path d="M1480 2640 c0 -5 7 -10 15 -10 8 0 15 5 15 10 0 6 -7 10 -15 10 -8 0
-15 -4 -15 -10z"/>
<path d="M1578 2643 c-24 -6 -23 -15 5 -41 28 -26 52 -28 61 -5 5 11 -1 23
-16 35 -13 10 -25 17 -28 17 -3 -1 -13 -3 -22 -6z"/>
<path d="M632 2618 c3 -7 13 -15 24 -17 16 -3 17 -1 5 13 -16 19 -34 21 -29 4z"/>
<path d="M960 2610 c0 -14 48 -43 60 -35 18 11 11 23 -21 34 -39 13 -39 13
-39 1z"/>
<path d="M1770 2590 c0 -5 5 -10 10 -10 6 0 10 5 10 10 0 6 -4 10 -10 10 -5 0
-10 -4 -10 -10z"/>
<path d="M1950 2570 c0 -5 7 -10 15 -10 8 0 15 5 15 10 0 6 -7 10 -15 10 -8 0
-15 -4 -15 -10z"/>
<path d="M2175 2540 c-5 -9 11 -50 20 -50 12 0 33 33 29 45 -7 17 -40 20 -49
5z"/>
<path d="M602 2523 c2 -9 8 -18 15 -20 7 -3 9 3 6 16 -6 25 -26 28 -21 4z"/>
<path d="M1647 2512 c-9 -10 -17 -22 -17 -27 0 -4 -8 -14 -17 -21 -17 -13 -17
-13 2 -13 25 0 72 56 58 70 -6 6 -16 3 -26 -9z"/>
<path d="M2330 2519 c0 -5 5 -7 10 -4 6 3 10 8 10 11 0 2 -4 4 -10 4 -5 0 -10
-5 -10 -11z"/>
<path d="M920 2467 c0 -9 5 -19 10 -22 6 -4 8 -15 5 -26 -7 -22 3 -24 58 -8
49 13 47 35 -4 49 -22 6 -47 14 -55 17 -8 3 -14 -1 -14 -10z"/>
<path d="M1057 2454 c-9 -10 2 -24 19 -24 8 0 14 7 14 15 0 15 -21 21 -33 9z"/>
<path d="M1210 2414 c0 -14 3 -14 15 -4 8 7 15 14 15 16 0 2 -7 4 -15 4 -8 0
-15 -7 -15 -16z"/>
<path d="M692 2404 c-8 -8 -10 -23 -6 -36 6 -21 7 -21 20 -3 15 20 19 55 7 55
-5 -1 -14 -7 -21 -16z"/>
<path d="M2485 2390 c-3 -6 1 -13 10 -16 19 -8 30 0 20 15 -8 14 -22 14 -30 1z"/>
<path d="M2587 2384 c-3 -3 -3 -12 0 -20 3 -8 -2 -17 -11 -20 -31 -12 -18 -49
28 -82 37 -27 45 -29 50 -16 4 9 -4 28 -19 46 -14 16 -25 42 -25 58 0 28 -12
45 -23 34z"/>
<path d="M784 2355 c-9 -23 3 -45 21 -39 20 8 20 54 0 54 -9 0 -18 -7 -21 -15z"/>
<path d="M677 2333 c-12 -11 -8 -23 8 -23 8 0 15 7 15 15 0 16 -12 20 -23 8z"/>
<path d="M2456 2281 c-12 -13 -14 -21 -6 -26 18 -11 40 3 40 25 0 25 -12 26
-34 1z"/>
<path d="M556 2263 c-6 -14 -5 -15 5 -6 7 7 10 15 7 18 -3 3 -9 -2 -12 -12z"/>
<path d="M715 2261 c-8 -15 3 -31 21 -31 9 0 14 7 12 17 -4 20 -24 28 -33 14z"/>
<path d="M521 2164 c0 -11 3 -14 6 -6 3 7 2 16 -1 19 -3 4 -6 -2 -5 -13z"/>
<path d="M708 2130 c-21 -20 -38 -42 -38 -50 0 -7 11 -1 26 14 15 14 31 27 35
27 5 1 13 2 19 3 16 2 32 24 26 35 -11 18 -29 10 -68 -29z"/>
<path d="M2607 2082 c-8 -9 -19 -30 -23 -46 l-7 -29 37 28 c40 30 43 37 23 54
-11 8 -18 7 -30 -7z"/>
<path d="M590 2030 c0 -5 5 -10 10 -10 6 0 10 5 10 10 0 6 -4 10 -10 10 -5 0
-10 -4 -10 -10z"/>
<path d="M475 1990 c-3 -6 1 -13 10 -16 19 -8 30 0 20 15 -8 14 -22 14 -30 1z"/>
<path d="M505 1569 c-4 -6 -5 -11 -4 -12 2 -1 14 -7 25 -14 20 -11 21 -10 10
13 -12 26 -21 30 -31 13z"/>
<path d="M476 1471 c-17 -6 -15 -10 14 -34 18 -15 46 -35 64 -44 17 -9 35 -22
39 -29 4 -8 14 -14 21 -14 16 0 46 32 46 48 0 18 -31 14 -45 -4 -10 -15 -18
-11 -64 35 -28 28 -52 51 -54 50 -1 0 -10 -4 -21 -8z"/>
<path d="M502 1372 c22 -27 103 -74 112 -64 9 8 -95 92 -115 92 -20 0 -20 -1
3 -28z"/>
<path d="M360 1379 c0 -5 5 -7 10 -4 6 3 10 8 10 11 0 2 -4 4 -10 4 -5 0 -10
-5 -10 -11z"/>
<path d="M410 1260 c0 -11 5 -20 10 -20 6 0 10 9 10 20 0 11 -4 20 -10 20 -5
0 -10 -9 -10 -20z"/>
<path d="M717 1254 c-14 -14 -7 -35 11 -32 9 2 17 10 17 17 0 16 -18 25 -28
15z"/>
<path d="M2490 1205 c-10 -12 -10 -15 4 -15 9 0 16 7 16 15 0 8 -2 15 -4 15
-2 0 -9 -7 -16 -15z"/>
<path d="M638 1163 c6 -2 18 -2 25 0 6 3 1 5 -13 5 -14 0 -19 -2 -12 -5z"/>
<path d="M400 1136 c0 -9 5 -16 10 -16 6 0 10 4 10 9 0 6 -4 13 -10 16 -5 3
-10 -1 -10 -9z"/>
<path d="M687 1139 c-25 -14 -21 -29 7 -29 30 0 41 14 23 28 -8 7 -18 7 -30 1z"/>
<path d="M745 1120 c-3 -5 -1 -10 4 -10 6 0 11 -7 11 -16 0 -12 -7 -14 -30 -9
-33 7 -39 -5 -15 -25 13 -11 21 -10 43 1 15 7 32 14 37 14 23 2 50 24 40 33
-16 15 -83 24 -90 12z"/>
<path d="M895 1100 c-3 -5 -1 -10 4 -10 6 0 11 5 11 10 0 6 -2 10 -4 10 -3 0
-8 -4 -11 -10z"/>
<path d="M1107 1083 c-4 -3 -20 -6 -37 -5 -49 1 -29 -27 23 -33 9 -1 31 -15
47 -30 17 -16 30 -25 31 -19 3 26 -4 70 -13 82 -11 13 -40 16 -51 5z"/>
<path d="M960 1037 c-1 -22 55 -126 68 -127 8 0 12 16 12 49 0 50 -6 59 -52
79 -22 9 -28 9 -28 -1z"/>
<path d="M555 1030 c3 -5 8 -10 11 -10 2 0 4 5 4 10 0 6 -5 10 -11 10 -5 0 -7
-4 -4 -10z"/>
<path d="M742 1018 c-19 -19 -14 -30 11 -26 12 2 22 9 22 17 0 19 -18 24 -33
9z"/>
<path d="M560 979 c0 -5 5 -7 10 -4 6 3 10 8 10 11 0 2 -4 4 -10 4 -5 0 -10
-5 -10 -11z"/>
<path d="M500 970 c-8 -5 -11 -12 -7 -16 4 -4 13 -2 19 4 15 15 7 24 -12 12z"/>
<path d="M1345 970 c-3 -5 -1 -10 4 -10 6 0 11 5 11 10 0 6 -2 10 -4 10 -3 0
-8 -4 -11 -10z"/>
<path d="M760 962 c0 -7 -7 -12 -15 -12 -8 0 -15 -4 -15 -10 0 -5 7 -10 15
-10 17 0 32 27 21 37 -3 4 -6 1 -6 -5z"/>
<path d="M1440 930 c0 -13 7 -20 20 -20 23 0 26 10 8 28 -18 18 -28 15 -28 -8z"/>
<path d="M1785 940 c-8 -13 5 -13 25 0 13 8 13 10 -2 10 -9 0 -20 -4 -23 -10z"/>
<path d="M927 933 c-15 -14 -5 -23 26 -23 30 1 31 1 13 15 -22 17 -29 18 -39
8z"/>
<path d="M1296 931 c-4 -7 -5 -15 -2 -18 9 -9 19 4 14 18 -4 11 -6 11 -12 0z"/>
<path d="M10470 660 c0 -127 2 -150 15 -150 11 0 15 12 15 50 0 38 4 50 15 50
8 0 15 -4 15 -9 0 -4 13 -24 30 -42 16 -19 30 -37 30 -41 0 -5 9 -8 20 -8 13
0 20 7 20 20 0 11 -4 20 -9 20 -5 0 -13 10 -17 23 -4 12 -12 25 -18 29 -8 6
-8 8 0 8 7 0 15 11 18 25 4 14 11 25 16 25 6 0 10 25 10 55 0 30 -4 55 -9 55
-5 0 -13 9 -16 20 -5 17 -15 20 -71 20 l-64 0 0 -150z m110 91 c26 -50 3 -95
-47 -89 -25 3 -28 8 -31 42 -2 21 -1 44 2 52 8 21 63 18 76 -5z"/>
<path d="M11450 791 c0 -11 5 -23 10 -26 6 -3 10 -50 10 -106 0 -79 -3 -101
-15 -105 -8 -4 -15 -15 -15 -25 0 -16 8 -19 45 -19 37 0 45 3 45 19 0 10 -7
21 -15 25 -12 4 -15 29 -15 131 l0 125 -25 0 c-18 0 -25 -5 -25 -19z"/>
<path d="M970 679 c-22 -19 -25 -29 -25 -89 0 -89 20 -110 107 -110 l58 0 0
60 0 60 -45 0 c-33 0 -45 -4 -45 -15 0 -9 9 -15 25 -15 21 0 25 -5 25 -30 0
-25 -4 -30 -25 -30 -41 0 -65 29 -65 77 0 31 6 48 22 63 23 21 68 28 68 10 0
-5 9 -10 20 -10 22 0 26 20 8 38 -20 20 -100 14 -128 -9z"/>
<path d="M4894 687 c-2 -7 -3 -58 -2 -113 l3 -99 73 -3 c67 -3 72 -1 72 18 0
18 -6 20 -55 20 l-55 0 0 95 c0 79 -3 95 -15 95 -9 0 -18 -6 -21 -13z"/>
<path d="M5090 680 c0 -11 7 -20 15 -20 12 0 15 -15 15 -75 0 -60 -3 -75 -15
-75 -8 0 -15 -9 -15 -20 0 -17 7 -20 45 -20 38 0 45 3 45 20 0 11 -4 20 -10
20 -6 0 -10 32 -10 75 0 43 4 75 10 75 6 0 10 9 10 20 0 17 -7 20 -45 20 -38
0 -45 -3 -45 -20z"/>
<path d="M5230 683 c0 -31 24 -133 31 -133 4 0 10 -18 14 -40 5 -30 12 -40 25
-40 13 0 20 10 25 40 4 22 10 40 14 40 7 0 31 102 31 133 0 9 -7 17 -15 17 -9
0 -15 -9 -15 -25 0 -14 -4 -25 -9 -25 -5 0 -12 -20 -15 -45 -4 -25 -11 -45
-16 -45 -5 0 -12 20 -16 45 -3 25 -10 45 -15 45 -5 0 -9 11 -9 25 0 16 -6 25
-15 25 -8 0 -15 -8 -15 -17z"/>
<path d="M5394 687 c-2 -7 -3 -58 -2 -113 l3 -99 73 -3 c67 -3 72 -1 72 18 0
18 -6 20 -55 20 -54 0 -55 0 -55 30 0 28 2 30 40 30 29 0 40 4 40 15 0 11 -11
15 -40 15 -38 0 -40 2 -40 30 0 30 1 30 55 30 48 0 55 2 55 20 0 18 -7 20 -70
20 -49 0 -72 -4 -76 -13z"/>
<path d="M5730 584 c0 -105 2 -115 18 -112 13 2 18 15 20 56 2 28 7 52 13 52
5 0 9 -7 9 -15 0 -8 7 -15 15 -15 8 0 15 7 15 15 0 8 5 15 10 15 6 0 10 -25
10 -55 0 -48 2 -55 20 -55 19 0 20 7 20 115 0 108 -1 115 -20 115 -13 0 -22
-9 -26 -25 -3 -14 -10 -25 -15 -25 -5 0 -9 -7 -9 -15 0 -25 -17 -17 -25 12 -8
34 -23 53 -41 53 -11 0 -14 -24 -14 -116z"/>
<path d="M5927 694 c-12 -13 -7 -34 8 -34 12 0 15 -15 15 -75 0 -62 -3 -75
-16 -75 -9 0 -14 -7 -12 -17 3 -14 13 -18 48 -18 35 0 45 4 48 18 2 10 -3 17
-12 17 -13 0 -16 13 -16 75 0 62 3 75 16 75 9 0 14 7 12 18 -2 12 -14 18 -43
20 -23 2 -44 0 -48 -4z"/>
<path d="M6064 687 c-2 -7 -3 -58 -2 -113 3 -85 5 -99 21 -102 15 -3 17 5 17
62 0 37 4 66 10 66 6 0 10 -4 10 -9 0 -30 52 -115 73 -119 15 -3 17 10 17 113
0 106 -2 116 -17 113 -14 -2 -19 -17 -24 -68 -3 -36 -6 -57 -7 -47 -1 9 -6 17
-12 17 -5 0 -10 6 -10 14 0 8 -6 21 -14 28 -7 8 -17 24 -20 36 -8 24 -34 30
-42 9z"/>
<path d="M6250 680 c0 -13 7 -20 20 -20 19 0 20 -7 20 -96 0 -86 2 -95 18 -92
14 3 17 17 20 96 2 84 4 92 22 92 13 0 20 7 20 20 0 18 -7 20 -60 20 -53 0
-60 -2 -60 -20z"/>
<path d="M6430 680 c0 -11 7 -20 15 -20 12 0 15 -15 15 -75 0 -60 -3 -75 -15
-75 -8 0 -15 -9 -15 -20 0 -17 7 -20 45 -20 38 0 45 3 45 20 0 11 -7 20 -15
20 -12 0 -15 15 -15 75 0 60 3 75 15 75 8 0 15 9 15 20 0 17 -7 20 -45 20 -38
0 -45 -3 -45 -20z"/>
<path d="M6564 687 c-2 -7 -3 -58 -2 -113 3 -85 5 -99 21 -102 15 -3 17 5 17
62 0 37 4 66 10 66 6 0 10 -4 10 -9 0 -30 52 -115 73 -119 15 -3 17 10 17 113
0 106 -2 116 -17 113 -14 -2 -19 -17 -24 -68 -3 -36 -6 -57 -7 -47 -1 9 -6 17
-12 17 -5 0 -10 6 -10 14 0 8 -6 21 -14 28 -7 8 -17 24 -20 36 -8 24 -34 30
-42 9z"/>
<path d="M6769 683 c-47 -59 -51 -114 -14 -173 24 -38 28 -40 75 -40 l50 0 0
65 0 65 -40 0 c-29 0 -40 -4 -40 -15 0 -8 9 -15 20 -15 16 0 20 -7 20 -30 0
-35 -19 -39 -50 -13 -39 34 -17 133 30 133 6 0 19 -5 30 -12 24 -16 34 -6 26
27 -6 22 -12 25 -50 25 -29 0 -47 -6 -57 -17z"/>
<path d="M7114 665 c-3 -19 -3 -55 0 -80 6 -35 11 -45 26 -45 15 0 20 10 26
45 9 64 -2 115 -26 115 -14 0 -21 -10 -26 -35z"/>
<path d="M10672 675 c-16 -18 -22 -38 -22 -70 0 -62 29 -95 85 -95 38 0 65 13
65 32 0 4 -19 8 -43 8 -31 0 -45 5 -55 20 -12 19 -10 20 39 20 77 0 101 35 57
85 -17 19 -31 25 -63 25 -32 0 -46 -6 -63 -25z m108 -25 c0 -5 -16 -10 -35
-10 -19 0 -35 5 -35 10 0 6 16 10 35 10 19 0 35 -4 35 -10z"/>
<path d="M10840 680 c0 -11 5 -20 10 -20 6 0 10 -11 10 -25 0 -14 4 -25 9 -25
5 0 12 -18 16 -39 13 -78 62 -79 79 -2 5 22 13 41 17 41 5 0 9 11 9 25 0 14 5
25 10 25 6 0 10 9 10 20 0 13 -7 20 -20 20 -13 0 -20 -7 -20 -20 0 -11 -4 -20
-9 -20 -4 0 -12 -19 -17 -42 -11 -53 -26 -52 -38 1 -5 23 -13 41 -17 41 -5 0
-9 9 -9 20 0 13 -7 20 -20 20 -13 0 -20 -7 -20 -20z"/>
<path d="M11048 678 c-25 -31 -24 -118 1 -146 23 -28 105 -32 115 -6 9 24 9
24 -37 24 -31 0 -45 5 -55 20 -12 19 -10 20 39 20 30 0 56 6 65 14 16 16 19
56 5 56 -5 0 -13 9 -16 20 -10 30 -93 28 -117 -2z m102 -28 c0 -5 -16 -10 -35
-10 -19 0 -35 5 -35 10 0 6 16 10 35 10 19 0 35 -4 35 -10z"/>
<path d="M11243 685 c-20 -23 -16 -25 42 -25 30 0 55 -4 55 -10 0 -5 -19 -10
-41 -10 -49 0 -79 -27 -79 -71 0 -55 6 -59 86 -59 l74 0 0 81 c0 56 -4 85 -14
95 -19 19 -107 18 -123 -1z m97 -116 c0 -18 -5 -20 -42 -17 -31 2 -44 8 -46
21 -3 14 4 17 42 17 40 0 46 -3 46 -21z"/>
<path d="M800 660 c0 -15 -7 -20 -25 -20 -14 0 -25 -4 -25 -10 0 -5 9 -10 20
-10 11 0 20 -7 20 -15 0 -8 -4 -15 -10 -15 -5 0 -10 -7 -10 -15 0 -8 -7 -15
-16 -15 -11 0 -14 -5 -10 -16 3 -9 6 -24 6 -35 0 -12 7 -19 20 -19 15 0 20 7
20 25 0 16 6 25 15 25 9 0 15 -9 15 -25 0 -18 5 -25 20 -25 15 0 20 7 20 25 0
16 6 25 16 25 11 0 13 6 9 20 -8 24 11 60 30 60 8 0 15 5 15 10 0 6 -4 10 -10
10 -5 0 -10 9 -10 20 0 13 -7 20 -20 20 -13 0 -20 -7 -20 -20 0 -11 -7 -20
-15 -20 -8 0 -15 9 -15 20 0 13 -7 20 -20 20 -13 0 -20 -7 -20 -20z m50 -47
c0 -5 -3 -18 -6 -30 -7 -26 -34 -32 -34 -8 0 8 5 15 10 15 6 0 10 7 10 15 0 8
5 15 10 15 6 0 10 -3 10 -7z"/>
<path d="M2010 650 c0 -13 7 -20 20 -20 13 0 20 7 20 20 0 13 -7 20 -20 20
-13 0 -20 -7 -20 -20z"/>
<path d="M1158 601 c-23 -22 -23 -84 -2 -106 12 -12 31 -15 72 -13 69 4 86 28
19 28 -27 0 -49 6 -57 14 -10 13 -3 15 46 18 69 4 89 23 56 56 -28 28 -108 30
-134 3z m112 -21 c0 -5 -16 -10 -35 -10 -19 0 -35 5 -35 10 0 6 16 10 35 10
19 0 35 -4 35 -10z"/>
<path d="M1350 550 c0 -63 2 -70 19 -70 17 0 20 8 23 53 3 45 6 52 26 55 32 5
52 -21 52 -67 0 -34 3 -41 20 -41 17 0 20 7 20 50 0 71 -21 90 -100 90 l-60 0
0 -70z"/>
<path d="M1558 601 c-23 -22 -23 -84 -2 -106 12 -12 31 -15 72 -13 69 4 86 28
19 28 -27 0 -49 6 -57 14 -10 13 -3 15 46 18 69 4 89 23 56 56 -28 28 -108 30
-134 3z m112 -21 c0 -5 -16 -10 -35 -10 -19 0 -35 5 -35 10 0 6 16 10 35 10
19 0 35 -4 35 -10z"/>
<path d="M1755 600 c-13 -41 3 -60 52 -60 61 0 53 -24 -11 -28 -60 -4 -57 -26
4 -30 72 -5 90 3 90 42 0 38 -12 46 -66 46 -19 0 -34 5 -34 10 0 6 23 10 51
10 45 0 49 2 35 15 -9 9 -33 15 -65 15 -41 0 -51 -4 -56 -20z"/>
<path d="M2007 565 c5 -47 3 -55 -11 -55 -9 0 -16 -7 -16 -15 0 -12 13 -15 55
-15 42 0 55 3 55 15 0 8 -9 15 -20 15 -18 0 -20 7 -20 55 0 52 -2 55 -24 55
-24 0 -24 -2 -19 -55z"/>
<path d="M2155 600 c-13 -41 3 -60 52 -60 61 0 53 -24 -11 -28 -60 -4 -57 -26
4 -30 72 -5 90 3 90 42 0 38 -12 46 -66 46 -19 0 -34 5 -34 10 0 6 23 10 51
10 45 0 49 2 35 15 -9 9 -33 15 -65 15 -41 0 -51 -4 -56 -20z"/>
<path d="M7120 490 c0 -13 7 -20 20 -20 13 0 20 7 20 20 0 13 -7 20 -20 20
-13 0 -20 -7 -20 -20z"/>
<path d="M773 387 c-26 -13 -33 -35 -33 -102 0 -82 6 -93 56 -101 57 -8 114 2
114 21 0 8 5 15 10 15 6 0 10 28 10 65 0 37 -4 65 -10 65 -5 0 -10 7 -10 15 0
8 -7 15 -15 15 -8 0 -15 5 -15 10 0 13 -79 11 -107 -3z m97 -28 c0 -6 -20 -32
-45 -57 l-45 -45 0 44 c0 25 5 50 12 57 15 15 78 16 78 1z m6 -134 c-16 -17
-72 -20 -81 -5 -3 5 11 24 31 42 21 18 42 38 48 44 8 9 12 1 14 -27 2 -25 -2
-45 -12 -54z"/>
<path d="M1194 360 c-4 -22 -10 -40 -15 -40 -5 0 -9 -11 -9 -24 0 -13 -4 -26
-10 -28 -5 -1 -12 -22 -16 -45 -6 -39 -5 -43 15 -43 14 0 21 6 21 20 0 17 7
20 45 20 38 0 45 -3 45 -20 0 -13 7 -20 20 -20 15 0 20 7 20 25 0 14 -4 25 -9
25 -6 0 -13 20 -17 45 -3 25 -10 45 -15 45 -5 0 -9 11 -9 25 0 14 -4 25 -10
25 -5 0 -10 7 -10 15 0 8 -9 15 -20 15 -15 0 -21 -9 -26 -40z m48 -70 c4 -28
2 -30 -26 -29 -17 0 -25 3 -18 6 6 2 12 16 12 29 0 35 27 30 32 -6z"/>
<path d="M1394 360 c-4 -22 -10 -40 -15 -40 -5 0 -9 -11 -9 -24 0 -13 -4 -26
-10 -28 -5 -1 -12 -22 -16 -45 -6 -39 -5 -43 15 -43 14 0 21 6 21 20 0 17 7
20 45 20 38 0 45 -3 45 -20 0 -13 7 -20 20 -20 15 0 20 7 20 25 0 14 -4 25 -9
25 -6 0 -13 20 -17 45 -3 25 -10 45 -15 45 -5 0 -9 11 -9 25 0 14 -4 25 -10
25 -5 0 -10 7 -10 15 0 8 -9 15 -20 15 -15 0 -21 -9 -26 -40z m48 -70 c4 -28
2 -30 -26 -29 -17 0 -25 3 -18 6 6 2 12 16 12 29 0 35 27 30 32 -6z"/>
<path d="M1750 290 l0 -110 59 0 c61 0 91 15 91 46 0 8 5 14 10 14 6 0 10 23
10 50 0 28 -4 50 -10 50 -5 0 -10 6 -10 13 0 27 -39 47 -95 47 l-55 0 0 -110z
m108 55 c45 -51 17 -134 -45 -135 -22 0 -23 4 -23 80 0 77 1 80 23 80 13 0 33
-11 45 -25z"/>
<path d="M2005 368 c-4 -18 -12 -41 -18 -53 -24 -47 -27 -56 -33 -95 -6 -36
-5 -40 15 -40 14 0 21 6 21 20 0 17 7 20 45 20 38 0 45 -3 45 -20 0 -13 7 -20
20 -20 15 0 20 7 20 25 0 14 -4 25 -9 25 -6 0 -13 20 -17 45 -3 25 -10 45 -15
45 -5 0 -9 11 -9 25 0 14 -4 25 -10 25 -5 0 -10 7 -10 15 0 8 -9 15 -19 15
-14 0 -22 -10 -26 -32z m46 -81 c7 -25 5 -27 -24 -26 -18 0 -26 3 -19 6 6 2
12 16 12 30 0 32 22 25 31 -10z"/>
<path d="M5200 255 l0 -95 34 0 c18 0 39 7 46 15 21 26 24 98 5 139 -15 31
-22 36 -51 36 l-34 0 0 -95z m64 39 c15 -40 3 -104 -20 -104 -10 0 -14 15 -14
60 0 45 4 60 14 60 8 0 17 -7 20 -16z"/>
<path d="M5740 255 l0 -95 38 0 c46 0 62 14 62 54 -1 41 -21 66 -54 66 -23 0
-26 4 -26 35 0 19 -4 35 -10 35 -6 0 -10 -38 -10 -95z m65 -25 c3 -11 3 -24 0
-30 -9 -15 -45 -12 -45 4 0 44 33 63 45 26z"/>
<path d="M6180 331 c-12 -24 -13 -61 -1 -61 5 0 11 9 14 20 5 18 36 28 49 14
3 -3 -12 -31 -33 -63 -22 -32 -39 -64 -39 -70 0 -7 20 -11 50 -11 32 0 50 4
50 12 0 9 3 9 12 0 16 -16 70 -16 86 0 29 29 3 98 -37 98 -19 0 -20 2 -9 20 7
11 18 20 25 20 7 0 13 9 13 20 0 32 -32 24 -59 -15 -13 -19 -26 -55 -29 -80
-4 -42 -7 -45 -33 -45 l-28 0 29 44 c17 24 30 51 30 61 0 33 -20 55 -50 55
-19 0 -33 -7 -40 -19z m170 -121 c0 -21 -33 -29 -45 -10 -9 15 4 30 26 30 12
0 19 -7 19 -20z"/>
<path d="M6490 255 c0 -57 4 -95 10 -95 6 0 10 15 10 33 0 17 4 38 9 46 15 23
31 2 31 -40 0 -28 4 -39 15 -39 11 0 15 11 15 41 0 53 -15 79 -45 79 -22 0
-25 4 -25 35 0 19 -4 35 -10 35 -6 0 -10 -38 -10 -95z"/>
<path d="M10407 343 c-4 -3 -7 -37 -7 -74 0 -74 -14 -97 -38 -61 -19 28 -32
28 -32 -1 0 -31 18 -47 52 -47 37 0 48 28 48 121 0 64 -6 80 -23 62z"/>
<path d="M11200 325 c-16 -30 -9 -41 18 -24 22 14 56 5 50 -14 -3 -6 -14 -13
-26 -15 -14 -2 -22 -11 -22 -22 0 -11 8 -20 22 -22 12 -2 23 -9 26 -15 6 -19
-28 -28 -50 -14 -24 15 -36 6 -22 -17 8 -11 24 -17 50 -17 l39 0 2 79 c2 47
-2 85 -8 93 -19 23 -64 16 -79 -12z"/>
<path d="M11329 324 c-11 -21 -11 -28 -1 -31 15 -6 17 -103 2 -103 -5 0 -10
-7 -10 -15 0 -10 11 -15 35 -15 24 0 35 5 35 15 0 8 -4 15 -10 15 -5 0 -10 35
-12 77 -3 82 -16 100 -39 57z"/>
<path d="M11510 255 c0 -57 4 -95 10 -95 6 0 10 15 10 33 0 17 4 38 9 46 15
23 31 2 31 -40 0 -28 4 -39 15 -39 11 0 15 11 15 41 0 53 -15 79 -45 79 -22 0
-25 4 -25 35 0 19 -4 35 -10 35 -6 0 -10 -38 -10 -95z"/>
<path d="M6400 305 c0 -14 -4 -25 -10 -25 -5 0 -10 -7 -10 -15 0 -8 4 -15 9
-15 6 0 11 -19 13 -42 3 -39 6 -43 31 -46 19 -2 27 1 27 12 0 9 -9 16 -20 16
-16 0 -20 7 -20 30 0 20 5 30 15 30 8 0 15 7 15 15 0 8 -7 15 -15 15 -9 0 -15
9 -15 25 0 14 -4 25 -10 25 -5 0 -10 -11 -10 -25z"/>
<path d="M11420 305 c0 -14 -4 -25 -10 -25 -5 0 -10 -7 -10 -15 0 -8 4 -15 9
-15 6 0 11 -19 13 -42 3 -39 6 -43 31 -46 19 -2 27 1 27 12 0 9 -9 16 -20 16
-16 0 -20 7 -20 30 0 20 5 30 15 30 8 0 15 7 15 15 0 8 -7 15 -15 15 -9 0 -15
9 -15 25 0 14 -4 25 -10 25 -5 0 -10 -11 -10 -25z"/>
<path d="M940 305 c0 -8 12 -26 27 -40 15 -14 23 -25 16 -25 -16 0 -43 -28
-43 -46 0 -21 30 -17 56 7 l22 21 18 -21 c21 -24 54 -28 54 -6 0 8 -10 23 -22
35 l-22 20 22 20 c12 12 22 27 22 35 0 21 -27 18 -50 -5 -16 -16 -25 -18 -40
-10 -11 6 -20 15 -20 20 0 6 -9 10 -20 10 -11 0 -20 -7 -20 -15z"/>
<path d="M1562 305 c-11 -13 -5 -15 48 -15 33 0 60 -4 60 -10 0 -5 -22 -10
-49 -10 -58 0 -84 -19 -79 -59 3 -25 5 -26 86 -29 l82 -3 0 59 c0 32 -5 63
-12 70 -17 17 -120 15 -136 -3z m108 -80 c0 -11 -12 -15 -45 -15 -33 0 -45 4
-45 15 0 11 12 15 45 15 33 0 45 -4 45 -15z"/>
<path d="M5320 261 c-15 -28 -12 -77 4 -90 18 -15 68 -10 74 7 2 8 -7 12 -27
12 -16 0 -33 5 -36 10 -4 6 8 10 29 10 42 0 53 14 35 46 -16 30 -63 33 -79 5z
m53 -18 c-7 -2 -19 -2 -25 0 -7 3 -2 5 12 5 14 0 19 -2 13 -5z"/>
<path d="M5432 268 c-7 -7 -12 -28 -12 -48 0 -20 5 -41 12 -48 11 -11 68 -18
68 -8 0 2 3 11 6 20 5 13 1 15 -24 10 -33 -7 -47 6 -37 36 7 22 41 27 48 8 7
-22 19 -1 12 21 -7 24 -53 29 -73 9z"/>
<path d="M5532 260 c-16 -27 -15 -75 2 -89 8 -7 27 -11 42 -9 36 4 45 28 10
28 -13 0 -28 5 -31 10 -4 6 7 10 25 10 35 0 47 19 30 49 -14 27 -61 28 -78 1z
m61 -17 c-7 -2 -19 -2 -25 0 -7 3 -2 5 12 5 14 0 19 -2 13 -5z"/>
<path d="M5630 220 c0 -46 3 -60 14 -60 10 0 16 13 19 38 l4 37 1 -37 c1 -21
6 -38 11 -38 6 0 12 17 14 38 l4 37 1 -37 c1 -26 7 -38 17 -38 11 0 15 11 15
43 0 57 -11 71 -59 74 l-41 3 0 -60z"/>
<path d="M5862 268 c-7 -7 -12 -28 -12 -48 0 -20 5 -41 12 -48 18 -18 68 -15
68 3 0 9 -9 15 -24 15 -14 0 -28 5 -31 10 -4 6 6 10 24 10 35 0 45 12 37 46
-5 18 -13 24 -34 24 -15 0 -33 -5 -40 -12z m51 -25 c-7 -2 -19 -2 -25 0 -7 3
-2 5 12 5 14 0 19 -2 13 -5z"/>
<path d="M5960 221 c0 -48 3 -61 15 -61 11 0 15 11 15 40 0 29 5 43 17 47 9 4
19 1 21 -5 7 -21 23 -13 20 11 -2 18 -10 23 -45 25 l-43 3 0 -60z"/>
<path d="M10457 273 c-15 -14 -6 -23 26 -24 31 -2 31 -2 4 -6 -30 -5 -54 -41
-44 -67 5 -11 20 -16 52 -16 l45 0 0 44 c0 64 -7 76 -44 76 -18 0 -36 -3 -39
-7z m53 -73 c0 -5 -11 -10 -25 -10 -14 0 -25 5 -25 10 0 6 11 10 25 10 14 0
25 -4 25 -10z"/>
<path d="M10560 220 c0 -33 4 -60 10 -60 6 0 10 20 10 45 0 32 4 45 14 45 17
0 26 -22 26 -61 0 -16 5 -29 10 -29 11 0 14 78 4 104 -4 10 -18 16 -40 16
l-34 0 0 -60z"/>
<path d="M10650 232 c0 -58 12 -72 62 -72 l38 0 0 60 c0 68 -17 82 -22 18 -2
-35 -7 -43 -23 -43 -16 0 -21 8 -23 43 -2 28 -8 42 -18 42 -10 0 -14 -13 -14
-48z"/>
<path d="M10777 274 c-15 -15 -6 -24 26 -25 31 -2 31 -2 4 -6 -30 -5 -54 -41
-44 -67 5 -11 20 -16 52 -16 l46 0 -3 58 -3 57 -35 3 c-20 2 -39 0 -43 -4z
m53 -74 c0 -5 -9 -10 -20 -10 -11 0 -20 5 -20 10 0 6 9 10 20 10 11 0 20 -4
20 -10z"/>
<path d="M10880 221 c0 -34 4 -61 10 -61 6 0 10 13 10 29 0 16 3 36 6 45 7 17
34 22 34 6 0 -5 5 -10 11 -10 6 0 9 10 7 23 -2 18 -10 23 -40 25 l-38 3 0 -60z"/>
<path d="M10980 270 c0 -5 7 -27 16 -49 12 -30 13 -44 5 -60 -15 -27 -14 -33
5 -29 11 2 22 22 30 53 8 28 16 60 20 73 9 32 -12 27 -24 -5 l-10 -28 -7 28
c-7 25 -35 39 -35 17z"/>
<path d="M2200 205 c0 -20 5 -25 25 -25 20 0 25 5 25 25 0 20 -5 25 -25 25
-20 0 -25 -5 -25 -25z"/>
<path d="M2400 205 c0 -20 5 -25 25 -25 20 0 25 5 25 25 0 20 -5 25 -25 25
-20 0 -25 -5 -25 -25z"/>
<path d="M2600 205 c0 -20 5 -25 25 -25 20 0 25 5 25 25 0 20 -5 25 -25 25
-20 0 -25 -5 -25 -25z"/>
</g>
</svg>
